<?xml version="1.0" encoding="utf-8"?>
<!-- Generator: Adobe Illustrator 22.1.0, SVG Export Plug-In . SVG Version: 6.00 Build 0)  -->
<svg version="1.1" id="Layer_1" xmlns="http://www.w3.org/2000/svg" xmlns:xlink="http://www.w3.org/1999/xlink" x="0px" y="0px"
	 viewBox="0 0 53 53" style="enable-background:new 0 0 53 53;" xml:space="preserve">
<style type="text/css">
	.st0{fill:#F6BB42;}
</style>
<g>
	<g>
		<path class="st0" d="M26.5,0C11.9,0,0,11.9,0,26.5S11.9,53,26.5,53S53,41.1,53,26.5S41.1,0,26.5,0L26.5,0z M26.5,50.3
			c-13.1,0-23.8-10.7-23.8-23.8S13.4,2.7,26.5,2.7s23.8,10.7,23.8,23.8S39.6,50.3,26.5,50.3L26.5,50.3z"/>
	</g>
	<path class="st0" d="M27.6,24.6c-2.7-1.1-3.5-1.7-3.5-2.9c0-1,0.7-2.1,2.7-2.1c1.8,0,3.2,0.7,3.2,0.7c0.1,0.1,0.3,0.1,0.5,0.1
		c0.4,0,0.7-0.2,0.9-0.6l0.5-1.3c0.2-0.5-0.1-0.9-0.4-1c-1.1-0.5-3.3-0.9-3.3-0.9s-0.2,0-0.2-0.2v-1.8c0-0.6-0.5-1-1-1h-0.9
		c-0.6,0-1,0.4-1,1v1.9c0,0.1-0.2,0.2-0.2,0.2c-2.7,0.6-4.4,2.6-4.4,5.2c0,3.1,2.6,4.6,5.4,5.6c2.2,0.9,3.2,1.8,3.2,3.1
		c0,1.4-1.3,2.4-3.1,2.4c-1.6,0-3.7-1-3.7-1c-0.1-0.1-0.3-0.1-0.4-0.1c-0.4,0-0.8,0.2-0.9,0.6L20.3,34c-0.2,0.5,0.1,0.9,0.4,1
		c1.3,0.7,3.9,1.1,4,1.1c0,0,0.2,0.1,0.2,0.2v1.9c0,0.6,0.5,1,1,1h0.9c0.6,0,1-0.4,1-1v-2C27.9,36,28,36,28,36
		c2.9-0.7,4.7-2.8,4.7-5.4C32.7,27.8,31.2,26.1,27.6,24.6L27.6,24.6z"/>
</g>
</svg>
