<?xml version="1.0" encoding="utf-8"?>
<!-- Generator: Adobe Illustrator 22.1.0, SVG Export Plug-In . SVG Version: 6.00 Build 0)  -->
<svg version="1.1" id="Layer_1" xmlns="http://www.w3.org/2000/svg" xmlns:xlink="http://www.w3.org/1999/xlink" x="0px" y="0px"
	 viewBox="0 0 31 31" style="enable-background:new 0 0 31 31;" xml:space="preserve">
<style type="text/css">
	.st0{fill:#F6BB42;}
</style>
<g>
	<g>
		<path class="st0" d="M15.5,0C7,0,0,7,0,15.5S7,31,15.5,31S31,24,31,15.5S24,0,15.5,0L15.5,0z M15.5,29.4
			c-7.7,0-13.9-6.3-13.9-13.9S7.8,1.6,15.5,1.6s13.9,6.3,13.9,13.9S23.2,29.4,15.5,29.4L15.5,29.4z"/>
	</g>
</g>
<g id="_x36_syIE4.tif">
	<g>
		<g>
			<path class="st0" d="M14,19.3c1.5-2.3,3-4.6,4.5-6.8c0.4-0.5,0.7-1.1,1.1-1.6c0.4-0.6,1.1-0.7,1.6-0.4c0.5,0.4,0.7,1,0.3,1.6
				c-2.1,3.2-4.2,6.4-6.3,9.6c-0.4,0.6-1.2,0.7-1.7,0.2c-1.2-1.1-2.4-2.2-3.6-3.3c-0.5-0.5-0.5-1.2-0.1-1.7c0.4-0.4,1.1-0.5,1.6,0
				C12.2,17.7,13.1,18.5,14,19.3z"/>
		</g>
	</g>
</g>
</svg>
