<?xml version="1.0" encoding="utf-8"?>
<!-- Generator: Adobe Illustrator 22.1.0, SVG Export Plug-In . SVG Version: 6.00 Build 0)  -->
<svg version="1.1" id="Layer_1" xmlns="http://www.w3.org/2000/svg" xmlns:xlink="http://www.w3.org/1999/xlink" x="0px" y="0px"
	 viewBox="0 0 53 53" style="enable-background:new 0 0 53 53;" xml:space="preserve">
<style type="text/css">
	.st0{fill:#F6BB42;}
</style>
<g>
	<path class="st0" d="M26.7,0C12.2,0,0.4,11.8,0.4,26.3s11.8,26.3,26.3,26.3C41.2,52.6,53,40.8,53,26.3S41.2,0,26.7,0L26.7,0z
		 M26.7,50C13.6,50,3,39.4,3,26.3S13.6,2.7,26.7,2.7s23.7,10.6,23.7,23.7S39.7,50,26.7,50L26.7,50z M26.7,48.6"/>
</g>
<path class="st0" d="M36,36.2c-0.3,0-0.5-0.1-0.8-0.2l-10-7.2c-0.3-0.2-0.6-0.7-0.6-1.1V14.1c0-0.7,0.6-1.3,1.3-1.3
	c0.7,0,1.3,0.6,1.3,1.3V27l9.5,6.8c0.6,0.4,0.7,1.3,0.3,1.9C36.8,36,36.4,36.2,36,36.2z"/>
</svg>
