<?xml version="1.0" encoding="utf-8"?>
<!-- Generator: Adobe Illustrator 22.1.0, SVG Export Plug-In . SVG Version: 6.00 Build 0)  -->
<svg version="1.1" id="Layer_1" xmlns="http://www.w3.org/2000/svg" xmlns:xlink="http://www.w3.org/1999/xlink" x="0px" y="0px"
	 viewBox="0 0 53 53" style="enable-background:new 0 0 53 53;" xml:space="preserve">
<style type="text/css">
	.st0{fill:#F6BB42;}
</style>
<g>
	<g>
		<path class="st0" d="M26.5,0C11.9,0,0,11.9,0,26.5S11.9,53,26.5,53S53,41.1,53,26.5S41.1,0,26.5,0L26.5,0z M26.5,50.3
			c-13.1,0-23.8-10.7-23.8-23.8S13.4,2.7,26.5,2.7s23.8,10.7,23.8,23.8S39.6,50.3,26.5,50.3L26.5,50.3z"/>
	</g>
</g>
<g id="I8ssL1.tif">
	<g>
		<g>
			<path class="st0" d="M40.1,32.1c-0.1,0.2-0.1,0.5-0.2,0.7c-0.6,2.3-2.7,4-5,4h-0.1c0-3.5,0-7.1,0-10.6c0.8,0,1.6,0.2,2.3,0.5
				c0.2-4.3-1.3-7.9-5-10.2c-3.8-2.3-7.8-2.2-11.5,0.2c-3.5,2.3-4.9,5.8-4.7,10c0.7-0.3,1.5-0.5,2.3-0.5c0,3.5,0,7.1,0,10.7
				c-0.4-0.1-0.9-0.1-1.3-0.2c-2.1-0.5-3.7-2.3-4-4.5c0-0.1,0-0.1,0-0.1c0-0.4,0-0.7,0-1.1v-0.1c0.2-0.5,0.3-1,0.4-1.6
				c0-0.1,0.1-0.3,0.1-0.4c0-1,0-2,0-3s0.1-2.1,0.3-3.1c1.5-6.7,8-11.1,14.7-10c3.5,0.6,6.3,2.3,8.4,5.1c1.5,2,2.4,4.3,2.6,6.9
				c0.1,1.2,0,2.3,0,3.5c0,0.5,0,1,0.3,1.5c0.2,0.4,0.2,0.8,0.3,1.3C40.1,31.4,40.1,31.7,40.1,32.1z"/>
			<path class="st0" d="M31.8,31.6c0-1.6,0-3.2,0-4.9c0-0.3,0.1-0.6,0.3-0.8c0.3-0.4,1.5-0.3,1.8,0c0.2,0.2,0.3,0.6,0.3,0.9
				c0,3.1,0,6.1,0,9.2c0,0.3,0,0.6,0,0.8c-0.1,0.5-0.4,0.7-0.9,0.7c-0.1,0-0.3,0-0.4,0c-0.7,0-1-0.3-1-1c0-1.6,0-3.1,0-4.7
				C31.8,31.7,31.8,31.6,31.8,31.6z"/>
			<path class="st0" d="M21.2,31.6c0,1.6,0,3.2,0,4.8c0,0.3-0.1,0.6-0.3,0.8c-0.3,0.4-1.5,0.4-1.8,0c-0.2-0.2-0.3-0.5-0.3-0.8
				c0-2.9,0-5.8,0-8.6c0-0.4,0-0.7,0-1.1c0-0.7,0.3-1,1-1c0.1,0,0.2,0,0.3,0c0.7,0,1,0.4,1,1c0,1.6,0,3.2,0,4.8
				C21.2,31.5,21.2,31.5,21.2,31.6L21.2,31.6z"/>
		</g>
	</g>
</g>
</svg>
