<?xml version="1.0" encoding="utf-8"?>
<!-- Generator: Adobe Illustrator 22.1.0, SVG Export Plug-In . SVG Version: 6.00 Build 0)  -->
<svg version="1.1" id="Layer_1" xmlns="http://www.w3.org/2000/svg" xmlns:xlink="http://www.w3.org/1999/xlink" x="0px" y="0px"
	 viewBox="0 0 67 67" style="enable-background:new 0 0 67 67;" xml:space="preserve">
<style type="text/css">
	.st0{fill:#F6BB42;}
</style>
<g>
	<g>
		<path class="st0" d="M34.1,1C16.1,1,1.5,15.6,1.5,33.5S16.1,66,34.1,66s32.6-14.6,32.6-32.5S52,1,34.1,1L34.1,1z M34.1,62.8
			C18,62.8,4.8,49.7,4.8,33.5S17.9,4.2,34.1,4.2s29.3,13.1,29.3,29.3S50.2,62.8,34.1,62.8L34.1,62.8z"/>
	</g>
</g>
<path class="st0" d="M39.5,47.5l0-0.4c0,0,0-0.1,0-0.1c-0.2-0.5-0.3-0.8-0.6-1c-1.1-1.1-2.2-2.2-3.2-3.3c-1.1-1.1-2.2-2.2-3.3-3.3
	l-6.1-6.1l1.2-1.2c0.2-0.2,0.5-0.4,0.7-0.6c0.2-0.2,0.4-0.3,0.5-0.5c1.6-1.6,3.2-3.3,4.9-4.9c1.7-1.7,3.4-3.4,5-5.1
	c0.5-0.5,0.7-1.2,0.5-1.9c-0.1-0.6-0.6-1.1-1.3-1.4c-0.1,0-0.1-0.1-0.2-0.1c-0.1,0-0.2,0-0.3-0.1l-0.5,0l-0.1,0
	c-0.3,0.1-0.7,0.3-0.8,0.4l-0.1,0.1c-3.6,3.7-7.2,7.4-10.8,10.9l-2.7,2.7c-0.3,0.3-0.5,0.9-0.6,1.5l0,0.5c0,0.1,0,0.1,0,0.2l0.1,0.2
	c0.1,0.5,0.2,0.5,0.2,0.6l0.2,0.2c0.6,0.6,1.2,1.2,1.7,1.8c0.6,0.6,1.3,1.3,1.8,1.9l10.1,10.1c0.3,0.3,0.7,0.5,1,0.5l0.7,0
	c0,0,0.1,0,0.3-0.1C38.9,49,39.5,48.3,39.5,47.5z"/>
</svg>
