<?xml version="1.0" encoding="utf-8"?>
<!-- Generator: Adobe Illustrator 22.1.0, SVG Export Plug-In . SVG Version: 6.00 Build 0)  -->
<svg version="1.1" id="Layer_1" xmlns="http://www.w3.org/2000/svg" xmlns:xlink="http://www.w3.org/1999/xlink" x="0px" y="0px"
	 viewBox="0 0 46.3 62.2" style="enable-background:new 0 0 46.3 62.2;" xml:space="preserve">
<style type="text/css">
	.st0{fill:#F6BB42;}
</style>
<g>
	<g>
		<path class="st0" d="M35.4,0H4.1C2,0,0.3,1.7,0.3,3.8v54.6c0,2.1,1.7,3.8,3.8,3.8h38.3c2.1,0,3.8-1.7,3.8-3.8V11.8L35.4,0z
			 M36.3,5.7l4.8,5.2h-4.8V5.7z M43.1,58.4c0,0.3-0.3,0.6-0.6,0.6H4.1c-0.3,0-0.6-0.3-0.6-0.6V3.8c0-0.3,0.3-0.6,0.6-0.6h29v9.3
			c0,0.9,0.7,1.6,1.6,1.6h8.4V58.4z M9.2,17h27.2c0.7,0,1.2,0.5,1.2,1.2c0,0.7-0.5,1.2-1.2,1.2H9.2c-0.7,0-1.2-0.5-1.2-1.2
			C8,17.6,8.5,17,9.2,17L9.2,17z M37.6,26.3c0,0.7-0.5,1.2-1.2,1.2H9.2C8.5,27.5,8,27,8,26.3c0-0.7,0.5-1.2,1.2-1.2h27.2
			C37,25.1,37.6,25.6,37.6,26.3L37.6,26.3z M37.6,34.1c0,0.7-0.5,1.2-1.2,1.2H9.2c-0.7,0-1.2-0.5-1.2-1.2c0-0.7,0.5-1.2,1.2-1.2
			h27.2C37,32.9,37.6,33.4,37.6,34.1L37.6,34.1z M37.6,42c0,0.7-0.5,1.2-1.2,1.2H9.2C8.5,43.2,8,42.7,8,42c0-0.7,0.5-1.2,1.2-1.2
			h27.2C37,40.8,37.6,41.4,37.6,42L37.6,42z M37.6,42"/>
	</g>
</g>
</svg>
