<?xml version="1.0" encoding="utf-8"?>
<!-- Generator: Adobe Illustrator 22.1.0, SVG Export Plug-In . SVG Version: 6.00 Build 0)  -->
<svg version="1.1" id="Layer_1" xmlns="http://www.w3.org/2000/svg" xmlns:xlink="http://www.w3.org/1999/xlink" x="0px" y="0px"
	 viewBox="0 0 53 53" style="enable-background:new 0 0 53 53;" xml:space="preserve">
<style type="text/css">
	.st0{fill:#F6BB42;}
</style>
<g>
	<path class="st0" d="M29.2,4.3L29.2,4.3c-1-0.5-2.2-0.5-3.2,0c0,0-0.2,0-0.2,0.2l-13.1,11H2.6c-0.7,0-1.2,0.5-1.2,1.2v18.4
		c0,0.3,0.2,0.5,0.3,0.8c0.2,0.2,0.5,0.3,0.8,0.3h10.2l13.1,12l0.2,0.2c0.5,0.3,1,0.5,1.7,0.5c0.5,0,1-0.2,1.5-0.3
		c1-0.5,1.7-1.7,1.7-2.8V7.3C30.7,5.8,30.2,4.8,29.2,4.3z M13.1,29c-0.7,0-1.2,0.5-1.2,1.2v3.7H3.6V17.7H12v3.7
		c0,0.7,0.5,1.2,1.2,1.2s1.2-0.5,1.2-1.2V17L27.2,6.1c0.3-0.2,0.7,0,0.8,0c0.3,0.2,0.5,0.5,0.5,0.8v38.5c0,0.3-0.2,0.7-0.5,0.8
		c-0.2,0.2-0.5,0.2-0.8,0L14.3,34.6v-4.4C14.3,29.5,13.8,29,13.1,29z"/>
	<path class="st0" d="M39.2,7.8C38.7,7.6,38,8,37.7,8.5C37.6,9,37.9,9.6,38.4,10c6.9,2.3,11.4,8.7,11.4,15.9s-4.5,13.6-11.4,15.9
		c-0.5,0.2-0.8,0.8-0.7,1.5c0.2,0.5,0.5,0.8,1,0.8c0.2,0,0.2,0,0.3,0c7.8-2.7,13-9.9,13-18.1C52.1,17.7,46.9,10.3,39.2,7.8z"/>
	<path class="st0" d="M43.4,25.9c0-5.9-4-11-9.5-12.7c-0.7-0.2-1.2,0.2-1.3,0.8s0.2,1.2,0.8,1.3c4.7,1.3,8,5.7,8,10.5
		s-3.3,9.2-8,10.5c-0.7,0.2-1,0.8-0.8,1.3s0.5,0.8,1,0.8c0.2,0,0.2,0,0.3,0C39.4,36.9,43.4,31.7,43.4,25.9z"/>
</g>
</svg>
