<?xml version="1.0" encoding="utf-8"?>
<!-- Generator: Adobe Illustrator 22.1.0, SVG Export Plug-In . SVG Version: 6.00 Build 0)  -->
<svg version="1.1" id="Layer_1" xmlns="http://www.w3.org/2000/svg" xmlns:xlink="http://www.w3.org/1999/xlink" x="0px" y="0px"
	 viewBox="0 0 53 53" style="enable-background:new 0 0 53 53;" xml:space="preserve">
<style type="text/css">
	.st0{fill:#F6BB42;}
</style>
<g>
	<g>
		<path class="st0" d="M26.5,0C11.8,0-0.1,11.9-0.1,26.5S11.8,53,26.5,53s26.6-11.9,26.6-26.5S41.1,0,26.5,0L26.5,0z M26.5,50.4
			c-13.1,0-23.9-10.7-23.9-23.9S13.3,2.6,26.5,2.6s23.9,10.7,23.9,23.9S39.6,50.4,26.5,50.4L26.5,50.4z"/>
	</g>
</g>
<path class="st0" d="M30.9,37.9l0-0.3c0,0,0-0.1,0-0.1c-0.2-0.4-0.3-0.6-0.5-0.8c-0.9-0.9-1.8-1.8-2.6-2.7c-0.9-0.9-1.8-1.8-2.7-2.7
	l-4.9-4.9l1-1c0.2-0.2,0.4-0.3,0.6-0.5c0.2-0.1,0.3-0.3,0.4-0.4c1.3-1.3,2.6-2.7,4-4c1.4-1.4,2.8-2.8,4.1-4.2c0.4-0.4,0.6-1,0.4-1.5
	c-0.1-0.5-0.5-0.9-1-1.1c-0.1,0-0.1,0-0.1,0c-0.1,0-0.2,0-0.2-0.1l-0.4,0l-0.1,0c-0.2,0.1-0.6,0.2-0.6,0.3l-0.1,0.1
	c-2.9,3-5.9,6-8.8,8.9l-2.2,2.2c-0.2,0.2-0.4,0.7-0.5,1.2l0,0.4c0,0,0,0.1,0,0.1l0.1,0.2c0.1,0.4,0.1,0.4,0.2,0.5l0.2,0.2
	c0.5,0.5,0.9,1,1.4,1.5c0.5,0.5,1,1,1.5,1.6l8.2,8.2c0.2,0.3,0.6,0.4,0.8,0.4l0.6,0c0,0,0.1,0,0.3-0.1
	C30.4,39.1,30.9,38.5,30.9,37.9z"/>
</svg>
