<?xml version="1.0" encoding="utf-8"?>
<!-- Generator: Adobe Illustrator 22.1.0, SVG Export Plug-In . SVG Version: 6.00 Build 0)  -->
<svg version="1.1" id="Layer_1" xmlns="http://www.w3.org/2000/svg" xmlns:xlink="http://www.w3.org/1999/xlink" x="0px" y="0px"
	 viewBox="0 0 48 46" style="enable-background:new 0 0 48 46;" xml:space="preserve">
<style type="text/css">
	.st0{fill:#E5BF3F;}
	.st1{opacity:0.67;}
	.st2{fill:url(#SVGID_1_);}
	.st3{fill:#0E0927;}
	.st4{font-family:'ArialMT';}
	.st5{font-size:11.1981px;}
</style>
<g transform="matrix( 1, 0, 0, 1, 0,0) ">
	<g>
		<g id="Symbol_3_0_Layer2_0_FILL">
			<path class="st0" d="M37.9,29.1l8.7-8.9c0.9-0.9,1.2-1.8,1-2.6c-0.3-0.8-1-1.4-2.3-1.6l-12.2-2.2c-0.4-0.1-0.7-0.3-0.9-0.6
				l-5.9-11c-0.6-1.1-1.3-1.7-2.2-1.7c-0.8,0-1.6,0.5-2.2,1.6l-6,10.9c-0.2,0.3-0.5,0.5-0.8,0.6L2.7,15.8c-1.2,0.2-2,0.7-2.3,1.5
				c-0.3,0.8,0,1.7,0.9,2.6l8.7,9.1c0.1,0.1,0.2,0.4,0.2,0.7L8.5,42.2c-0.2,1.2,0.1,2.1,0.8,2.6c0.7,0.5,1.6,0.5,2.8,0l11.1-5.2
				c0.5-0.2,0.9-0.2,1.2,0l11.2,5.4c1.2,0.6,2.1,0.6,2.8,0.1c0.7-0.5,1-1.4,0.8-2.7l-1.6-12C37.5,29.8,37.6,29.3,37.9,29.1z"/>
		</g>
	</g>
</g>
<g transform="matrix( 1, 0, 0, 1, 0,0) " class="st1">
	<g>
		<g id="Symbol_3_0_Layer2_0_FILL_1_">
			<linearGradient id="SVGID_1_" gradientUnits="userSpaceOnUse" x1="21.7954" y1="27.6896" x2="36.8321" y2="7.8334">
				<stop  offset="0" style="stop-color:#E3BE3F"/>
				<stop  offset="1" style="stop-color:#FFFFFF"/>
			</linearGradient>
			<path class="st2" d="M35.8,28.2l7.4-7.5c0.8-0.8,1-1.5,0.8-2.2c-0.2-0.7-0.9-1.1-1.9-1.4l-10.4-1.9c-0.4-0.1-0.6-0.2-0.8-0.5
				l-5-9.3c-0.5-1-1.1-1.4-1.9-1.4c-0.7,0-1.3,0.5-1.9,1.4l-5.1,9.3c-0.2,0.3-0.4,0.5-0.6,0.5L5.9,16.9c-1.1,0.2-1.7,0.6-1.9,1.3
				c-0.2,0.7,0,1.4,0.8,2.2l7.4,7.8c0.1,0.1,0.2,0.3,0.2,0.6l-1.5,10.5c-0.2,1.1,0,1.8,0.6,2.2c0.6,0.5,1.4,0.4,2.4,0l9.5-4.5
				c0.4-0.2,0.7-0.2,1,0l9.6,4.6c1,0.5,1.8,0.5,2.4,0.1c0.6-0.4,0.8-1.2,0.7-2.3l-1.3-10.2C35.5,28.7,35.6,28.4,35.8,28.2z"/>
		</g>
	</g>
</g>
<g transform="matrix( 0.3173828125, 0, 0, 0.3158416748046875, 18.8,21.85) ">
	<g>
		<defs>
			<rect id="SVGID_2_" x="6.8" y="4" width="19.2" height="13.6"/>
		</defs>
		<clipPath id="SVGID_3_">
			<use xlink:href="#SVGID_2_"  style="overflow:visible;"/>
		</clipPath>
		<text transform="matrix(3.1661 0 0 3.1661 -12.1791 23.0399)" class="st3 st4 st5">VIP</text>
	</g>
</g>
</svg>
