<?xml version="1.0" encoding="utf-8"?>
<!-- Generator: Adobe Illustrator 22.1.0, SVG Export Plug-In . SVG Version: 6.00 Build 0)  -->
<svg version="1.1" id="Layer_1" xmlns="http://www.w3.org/2000/svg" xmlns:xlink="http://www.w3.org/1999/xlink" x="0px" y="0px"
	 viewBox="0 0 31 31" style="enable-background:new 0 0 31 31;" xml:space="preserve">
<style type="text/css">
	.st0{fill:#F6BB42;}
</style>
<g id="_x31_QHB2V.tif">
	<g>
		<g>
			<path class="st0" d="M23.6,27c-0.2,0-0.2,0-0.3-0.2c-1-0.3-2-0.7-2.8-1c-0.2,0-0.3,0-0.5,0c-0.5,0.2-0.8,0.5-1.1,1
				c-0.3,0.7-0.7,1.5-1.1,2.1c-0.2,0.2-0.2,0.2-0.3,0.2c-1.3,0-2.6,0-3.9,0c-0.2,0-0.3,0-0.3-0.2c-0.5-1-0.8-1.8-1.3-2.8
				c-0.2-0.2-0.2-0.3-0.5-0.3c-0.5-0.3-1-0.3-1.5,0c-0.8,0.3-1.5,0.5-2.3,0.8c-0.2,0-0.3,0-0.5-0.2c-1-1-1.8-1.8-2.8-2.8
				c-0.2-0.2-0.2-0.3-0.2-0.5c0.3-1,0.7-2,1-2.8c0-0.2,0-0.3,0-0.7c-0.2-0.5-0.5-0.8-1-1.1c-0.7-0.3-1.5-0.7-2.1-1.1
				c-0.2,0-0.2-0.2-0.2-0.3c0-1.3,0-2.6,0-3.9c0-0.2,0-0.3,0.2-0.3c1-0.5,1.8-0.8,2.8-1.3c0.2,0,0.3-0.2,0.3-0.3
				c0.2-0.5,0.2-1,0-1.5c-0.5-0.9-0.7-1.7-1-2.3c0-0.2,0-0.3,0.2-0.3c1-1,2-1.8,2.8-2.8c0.2-0.2,0.2-0.2,0.3-0.2c1,0.3,2,0.7,3,1
				c0.2,0,0.3,0,0.7,0c0.5-0.2,0.8-0.5,1-1c0.3-0.7,0.7-1.5,1.1-2.1c0-0.2,0.2-0.2,0.3-0.2c1.3,0,2.6,0,3.9,0c0.2,0,0.3,0,0.3,0.3
				c0.5,1,0.8,1.8,1.3,2.8c0.3-0.2,0.5,0,0.7,0c0.5,0.3,1,0.2,1.5,0c0.8-0.3,1.5-0.5,2.3-0.8c0.2,0,0.3,0,0.3,0.2c1,1,1.8,2,2.8,2.8
				c0.2,0.2,0.2,0.3,0.2,0.5c-0.3,1-0.7,2-1,3c0,0.2,0,0.3,0,0.7c0.2,0.5,0.5,0.8,1,1.1c0.7,0.3,1.5,0.7,2.1,1.1
				c0.2,0,0.2,0.2,0.2,0.3c0,1.3,0,2.6,0,4.1c0,0.2,0,0.3-0.2,0.3c-1,0.5-1.8,0.8-2.8,1.3c-0.2,0.2-0.3,0.2-0.5,0.5
				c-0.3,0.5-0.2,1,0,1.5c0.3,0.8,0.5,1.5,0.8,2.3c0,0.2,0,0.3-0.2,0.3C25.4,25.2,24.4,26.2,23.6,27C23.7,26.8,23.6,27,23.6,27z
				 M25,8c0,0,0-0.2-0.2-0.2c-0.5-0.5-1-1-1.5-1.5c-0.2-0.2-0.3-0.2-0.5-0.2c-0.8,0.3-1.6,0.5-2.3,0.8c-0.2,0-0.3,0-0.5,0
				c-0.5-0.2-1.1-0.5-1.6-0.7c-0.2,0-0.2-0.2-0.3-0.3c-0.5-0.8-0.8-1.6-1.1-2.5c-0.2-0.2-0.2-0.2-0.3-0.2c-0.7,0-1.3,0-2,0
				c-0.2,0-0.3,0-0.3,0.2c-0.3,0.8-0.8,1.5-1.1,2.3C13.3,5.9,13.1,6,13,6c-0.5,0.3-1.1,0.5-1.6,0.7c-0.2,0-0.3,0-0.5,0
				C10,6.5,9,6.2,8.2,6C8,6,7.8,6,7.8,6c-0.5,0.5-1,1-1.5,1.5C6.2,7.6,6.2,7.6,6.2,7.8C6.5,8.6,6.7,9.4,7,10.3c0,0.2,0,0.3,0,0.3
				c-0.2,0.7-0.5,1.1-0.7,1.8c0,0.2-0.2,0.3-0.3,0.3c-0.8,0.5-1.6,0.8-2.5,1.1C3.4,14,3.2,14,3.4,14.2c0,0.7,0,1.3,0,2
				c0,0.2,0,0.3,0.2,0.3c0.7,0.3,1.5,0.7,2.1,1.1C5.9,17.6,6,17.8,6,18c0.3,0.5,0.5,1.1,0.7,1.6c0,0.2,0,0.3,0,0.5
				c-0.3,0.8-0.7,1.8-0.8,2.6c0,0.2,0,0.3,0.2,0.3c0.5,0.5,1,1,1.5,1.5c0.2,0.2,0.3,0.2,0.5,0.2c0.8-0.3,1.6-0.5,2.3-0.8
				c0.2,0,0.3,0,0.5,0c0.7,0.2,1.1,0.5,1.8,0.7c0.2,0,0.2,0.2,0.3,0.3c0.5,0.8,0.8,1.6,1.1,2.5c0,0.2,0.2,0.2,0.3,0.2
				c0.7,0,1.3,0,2,0c0.2,0,0.3,0,0.3-0.2c0.3-0.8,0.8-1.5,1.1-2.3c0-0.2,0.2-0.3,0.3-0.3c0.5-0.3,1.1-0.5,1.6-0.8c0.2,0,0.3,0,0.3,0
				c0.8,0.3,1.8,0.7,2.6,1c0.2,0,0.3,0,0.3-0.2c0.5-0.5,1-1,1.5-1.5c0.2-0.2,0.2-0.2,0.2-0.3c-0.3-0.8-0.5-1.6-0.8-2.3
				c0-0.2,0-0.3,0-0.5c0.2-0.5,0.5-1.1,0.7-1.6c0-0.2,0.2-0.3,0.3-0.3c0.8-0.5,1.6-0.8,2.5-1.1c0.2,0,0.2-0.2,0.2-0.3
				c0-0.7,0-1.3,0-2c0-0.2,0-0.3-0.2-0.3c-0.8-0.3-1.5-0.8-2.3-1.1c-0.2,0-0.2-0.2-0.3-0.3c-0.3-0.5-0.5-1.1-0.8-1.8
				c0-0.2,0-0.3,0-0.3c0.3-0.8,0.7-1.8,0.8-2.6C25,8.1,25,8,25,8z"/>
			<path class="st0" d="M21.8,15.5c0,3.3-3,6.2-6.2,6.2s-6.2-3-6.2-6.2s3-6.2,6.2-6.2C18.8,9.3,21.8,12.2,21.8,15.5z M15.5,20.1
				c2.6,0,4.6-2,4.6-4.6s-2-4.6-4.6-4.6s-4.6,2-4.6,4.6S12.9,20.1,15.5,20.1z"/>
		</g>
	</g>
</g>
</svg>
